<svg xmlns="http://www.w3.org/2000/svg" width="210.45" height="160.31" viewBox="0 0 210.45 160.31">
  <defs>
    <style>
      .cls-1 {
        fill: #fff;
      }
    </style>
  </defs>
  <title>Asset 3</title>
  <g id="Layer_2" data-name="Layer 2">
    <g id="Layer_1-2" data-name="Layer 1">
      <g id="Group_104" data-name="Group 104">
        <path class="cls-1" d="M165.93,92.4a29.06,29.06,0,0,1,9.83,10.88A28.52,28.52,0,0,0,165.93,92.4Zm5.79-26.87q.92,2.56,1.58,5.22A49.8,49.8,0,0,0,171.72,65.53Zm-2.62-6.08a53.54,53.54,0,0,1,2.62,6.08A50.18,50.18,0,0,0,169.1,59.45ZM154,41.26c-.51-.4-1-.79-1.54-1.16C153,40.47,153.52,40.86,154,41.26Zm0,0c.33.25.66.51,1,.78C154.69,41.77,154.36,41.51,154,41.26Zm1.32,1.05L155,42c.47.38.94.76,1.4,1.17ZM79.91,60.15a23.65,23.65,0,0,0-2.56-.69A25.46,25.46,0,0,1,79.91,60.15Zm-7-1.24.63,0Zm-2.24,0c.74,0,1.49,0,2.24,0l-.82,0C71.61,58.88,71.14,58.89,70.67,58.93Zm3.81.08c.52.05,1,.11,1.55.2C75.52,59.12,75,59.06,74.48,59Zm-.94-.07.94.07Z"/>
        <path class="cls-1" d="M175.67,80.9a44.22,44.22,0,0,1,11.37,12h0A43.33,43.33,0,0,0,175.67,80.9Zm-.91-.64.91.64c-.3-.23-.6-.44-.91-.65ZM159.86,89V84.33l-.15,4.61Zm-1.75-16.88a37.7,37.7,0,0,0-2.34-5.79A39.83,39.83,0,0,1,158.11,72.13Zm-2.38-5.86a35,35,0,0,0-2.11-3.66A41.75,41.75,0,0,1,155.73,66.27Zm-8.3-11c.76.7,1.48,1.42,2.18,2.17-.35-.38-.71-.75-1.07-1.11S147.81,55.64,147.43,55.3Zm-3-2.47a37.84,37.84,0,0,0-8.66-4.94A38.65,38.65,0,0,1,144.47,52.83ZM87.69,63.56h0l-5.25-2.4Zm-4.23-18a39.64,39.64,0,0,0-11.12-1.66h0a40.28,40.28,0,0,1,11.11,1.66Z"/>
        <path class="cls-1" d="M193.08,47a46.26,46.26,0,0,0-77.71-34.66A39.5,39.5,0,0,0,57.13,46.81a39.78,39.78,0,0,0-20.5,18.68A48.1,48.1,0,0,0,48,160.31H150.18a43.85,43.85,0,0,0,43.8-43.8V106.24A34.41,34.41,0,0,0,193.08,47ZM76.79,32.73a24.46,24.46,0,0,1,35.08-4.8L115,30.4a53.44,53.44,0,0,0-16.11,4.51h0c-1,.46-2,.94-2.92,1.45l-.9.49-1.11.63c-.72.43-1.43.86-2.13,1.32l-1.09.74a53.74,53.74,0,0,0-7.22,6h0a40.28,40.28,0,0,0-11.11-1.66h0A24.26,24.26,0,0,1,76.79,32.73ZM179,117a28.82,28.82,0,0,1-28.79,28.36H48.05A33.1,33.1,0,0,1,43,79.5l4.28-.66,1.56-4A24.89,24.89,0,0,1,67.36,59.33a.45.45,0,0,0,.16,0c.28-.06.57-.1.86-.14s.87-.12,1.3-.16.66-.06,1-.07.94,0,1.42,0a22.86,22.86,0,0,1,3.94.33,12.26,12.26,0,0,1,1.32.25,23.65,23.65,0,0,1,2.56.69l1.1.4.29.11c.38.15.76.31,1.14.49l5.25,2.4,3.67-4.44A38.5,38.5,0,0,1,101,50.73c.6-.38,1.21-.73,1.83-1.06.3-.17.62-.33.93-.49a37.12,37.12,0,0,1,4.64-2l.72-.24c1-.33,2-.62,3-.86.52-.13,1-.24,1.56-.34h0c.62-.12,1.24-.22,1.86-.31.28-.05.56-.08.83-.11s.72-.09,1.09-.12.63-.06.94-.08q.94-.07,1.89-.09h1c.49,0,1,0,1.47,0s.86,0,1.28.07.64,0,1,.08.65.06,1,.1l.77.11c.5.06,1,.14,1.49.24l1,.2c.53.1,1.06.22,1.58.37a5.54,5.54,0,0,1,.55.14l.19,0c.38.1.77.21,1.15.34s1,.32,1.54.51l.06,0c.51.18,1,.37,1.51.58a37.84,37.84,0,0,1,8.66,4.94c.45.33.89.68,1.33,1.05.28.22.56.46.83.7l.8.72c.38.34.75.7,1.11,1.06s.72.73,1.07,1.11c.52.57,1,1.15,1.52,1.74s.88,1.1,1.28,1.66.83,1.15,1.21,1.74a35,35,0,0,1,2.11,3.66.16.16,0,0,0,0,.07,37.7,37.7,0,0,1,2.34,5.79q.16.51.3,1t.27,1c.1.33.18.67.25,1v0c.08.34.15.69.22,1,.13.7.25,1.4.35,2.11.05.35.1.71.13,1.06l.06.58c0,.28.05.55.07.83.07,1,.11,1.92.11,2.89V89l4,2.13c.36.19.71.39,1.06.6s.71.43,1.05.66a28.52,28.52,0,0,1,9.83,10.88c.2.37.38.74.55,1.11s.31.68.45,1l.05.12a28.77,28.77,0,0,1,2.16,11ZM194.58,82.6h0a19.43,19.43,0,0,1-7.52,10.25h0a44.22,44.22,0,0,0-11.37-12l-.91-.64h0s0-.08,0-.12c0-.42-.06-.84-.1-1.26s-.08-.92-.14-1.37-.11-.92-.17-1.37l-.21-1.36c-.06-.35-.12-.7-.19-1-.19-1-.4-2-.64-3q-.66-2.66-1.58-5.22a53.54,53.54,0,0,0-2.62-6.08L169,59.3l-.63-1.2-.67-1.19c-.26-.45-.52-.89-.79-1.33l-.63-1c-.49-.76-1-1.51-1.54-2.25l-.46-.63-.32-.42q-.36-.48-.75-1c-.32-.41-.65-.82-1-1.22s-.55-.65-.84-1c-.93-1-1.9-2.07-2.93-3l-1-1c-.34-.32-.68-.62-1-.93l-1.06-.9c-.94-.77-1.89-1.51-2.86-2.21A53.22,53.22,0,0,0,121.19,30c-.48,0-1,0-1.43,0l2.65-3.32a31.25,31.25,0,0,1,55.38,23.82l-.84,6,5.71,2.07A19.38,19.38,0,0,1,194.58,82.6Z"/>
      </g>
    </g>
  </g>
</svg>
