<svg xmlns="http://www.w3.org/2000/svg" width="1090.01" height="318.62" viewBox="0 0 1090.01 318.62">
  <defs>
    <style>
      .cls-1 {
        fill: #fff;
      }

      .cls-2 {
        isolation: isolate;
      }

      .cls-3 {
        fill: #ed2024;
      }

      .cls-4, .cls-5, .cls-6, .cls-7 {
        fill: none;
      }

      .cls-4 {
        stroke: #707071;
      }

      .cls-5, .cls-7 {
        stroke: #3e3e3e;
        stroke-width: 5px;
      }

      .cls-5 {
        stroke-linecap: round;
      }
    </style>
  </defs>
  <title>Asset 3</title>
  <g id="Layer_2" data-name="Layer 2">
    <g id="Layer_1-2" data-name="Layer 1">
      <g id="Group_109" data-name="Group 109">
        <g id="Group_104" data-name="Group 104">
          <path id="Path_28" data-name="Path 28" class="cls-1" d="M1031.12,52.22a16.42,16.42,0,0,1,5.56,6.14A16.18,16.18,0,0,0,1031.12,52.22ZM1034.4,37c.34,1,.64,1.94.89,2.94A27.62,27.62,0,0,0,1034.4,37Zm-1.48-3.44A31.81,31.81,0,0,1,1034.4,37a29.94,29.94,0,0,0-1.48-3.44Zm-8.52-10.28-.87-.65c.3.21.59.43.87.65Zm0,0,.55.44-.55-.44Zm.75.6-.2-.16.8.66-.6-.5ZM982.52,34a14.54,14.54,0,0,0-1.44-.38,14.54,14.54,0,0,1,1.44.38Zm-4-.7.36,0h-.36Zm-1.26,0c.42,0,.84,0,1.26,0h-.46a7.13,7.13,0,0,0-.8,0Zm2.15.05c.29,0,.59.06.88.11l-.88-.11Zm-.53,0,.53,0-.53,0Z"/>
          <path id="Path_29" data-name="Path 29" class="cls-1" d="M1036.63,45.72a25.19,25.19,0,0,1,6.42,6.76h0A24.36,24.36,0,0,0,1036.63,45.72Zm-.52-.36.52.36-.52-.37Zm-8.42,4.94V47.66l-.08,2.6Zm-1-9.54a22,22,0,0,0-1.33-3.27,23.1,23.1,0,0,1,1.33,3.27Zm-1.35-3.31a18.35,18.35,0,0,0-1.19-2.06,22,22,0,0,1,1.19,2.06Zm-4.69-6.2c.43.4.84.8,1.23,1.23-.2-.22-.4-.42-.6-.63s-.41-.4-.63-.59Zm-1.67-1.4a21.4,21.4,0,0,0-4.9-2.79,21.82,21.82,0,0,1,4.9,2.8Zm-32.08,6.07h0l-3-1.36Zm-2.39-10.19a22.7,22.7,0,0,0-6.29-.94h0a22.63,22.63,0,0,1,6.28.94Z"/>
          <path id="Path_30" data-name="Path 30" class="cls-1" d="M1046.47,26.56A26.13,26.13,0,0,0,1002.56,7a22.31,22.31,0,0,0-32.91,19.48A22.47,22.47,0,0,0,958.07,37a27.18,27.18,0,0,0,6.44,53.57h57.71A24.77,24.77,0,0,0,1047,65.84V60a19.45,19.45,0,0,0-.5-33.48ZM980.76,18.5a13.82,13.82,0,0,1,19.29-3.11c.18.13.36.26.53.4l1.75,1.4a30.33,30.33,0,0,0-9.1,2.55h0c-.55.25-1.11.53-1.65.82l-.5.27-.63.36c-.41.24-.81.49-1.2.74l-.62.42a30.08,30.08,0,0,0-4.08,3.39h0a22.62,22.62,0,0,0-6.27-.94h0a13.7,13.7,0,0,1,2.51-6.3Zm57.73,47.59a16.28,16.28,0,0,1-16.27,16h-57.7a18.7,18.7,0,0,1-2.83-37.18l2.42-.37.88-2.29a14,14,0,0,1,10.44-8.74h.09a4.17,4.17,0,0,1,.49-.08c.25,0,.49-.07.74-.09a5.09,5.09,0,0,1,.56,0c.26,0,.53,0,.8,0a13.76,13.76,0,0,1,2.22.18q.38.06.75.15a11.76,11.76,0,0,1,1.44.39l.62.22.17.07c.21.08.43.17.64.27l3,1.36L989,33.41a22,22,0,0,1,5.44-4.74c.34-.21.68-.41,1-.6.17-.1.35-.18.53-.27a20.84,20.84,0,0,1,2.62-1.12c.13,0,.27-.1.41-.13.56-.19,1.13-.35,1.71-.49.3-.07.58-.14.88-.19h0c.35-.07.7-.12,1-.17l.46-.07c.21,0,.41-.05.62-.06a5,5,0,0,1,.53,0c.36,0,.72,0,1.07-.05h.57c.27,0,.55,0,.83,0a5.79,5.79,0,0,1,.72,0l.54,0c.18,0,.36,0,.54.06l.44.06c.28,0,.56.08.84.14l.55.11c.3.06.6.13.89.21l.31.08.11,0c.22.05.44.12.65.19s.58.18.87.29h0c.29.1.58.21.86.33a21.34,21.34,0,0,1,4.89,2.79c.26.19.5.38.75.59s.32.26.47.4l.46.41c.21.19.42.4.62.6s.41.41.6.63.58.65.86,1,.5.63.73.94.47.65.68,1a19.42,19.42,0,0,1,1.19,2.07s0,0,0,0a20.56,20.56,0,0,1,1.33,3.27c.06.2.12.39.17.58s.11.38.15.58.1.37.14.57h0c0,.19.09.39.13.59.07.4.14.79.2,1.19,0,.2,0,.4.07.6l0,.33c0,.15,0,.31,0,.47,0,.54.07,1.08.07,1.63v3l2.24,1.2.6.34.6.38a16.08,16.08,0,0,1,5.55,6.14c.11.21.21.42.31.63s.18.39.26.58l0,.06a16.12,16.12,0,0,1,1.22,6.2Zm8.82-19.41h0a10.93,10.93,0,0,1-4.25,5.79h0a25.08,25.08,0,0,0-6.43-6.76l-.51-.36h0s0,0,0-.06c0-.24,0-.48,0-.72s0-.52-.08-.77-.06-.52-.1-.77l-.12-.77c0-.2-.07-.4-.11-.6q-.15-.85-.36-1.68c-.25-1-.55-2-.89-2.95a32.53,32.53,0,0,0-1.48-3.43l-.05-.09-.36-.68-.37-.67-.45-.75-.36-.56c-.27-.43-.56-.85-.87-1.27l-.26-.36A2,2,0,0,0,1030,29c-.13-.19-.27-.37-.42-.55l-.56-.69-.48-.54c-.52-.6-1.07-1.17-1.66-1.73l-.57-.54-.58-.52-.6-.51c-.54-.43-1.08-.85-1.62-1.25A30.09,30.09,0,0,0,1005.84,17H1005l1.5-1.88a17.66,17.66,0,0,1,31.29,13.46l-.48,3.4,3.23,1.17a10.94,10.94,0,0,1,6.74,13.54Z"/>
        </g>
        <g id="Group_14" data-name="Group 14">
          <path id="Path_1" data-name="Path 1" class="cls-1" d="M159.13,20.19h0A5.13,5.13,0,0,1,152.66,23,76,76,0,0,0,59.78,60.5,5.17,5.17,0,0,1,53.16,63h0a5.11,5.11,0,0,1-2.72-6.7,1.23,1.23,0,0,1,.12-.26A86.23,86.23,0,0,1,156.18,13.37a5.11,5.11,0,0,1,3.06,6.54h0A2.33,2.33,0,0,1,159.13,20.19Z"/>
          <path id="Path_2" data-name="Path 2" class="cls-1" d="M151.87,37.29h0a5.16,5.16,0,0,1-6.4,2.83A57.41,57.41,0,0,0,76.84,67.84a5.16,5.16,0,0,1-6.58,2.4h0a5.1,5.1,0,0,1-2.74-6.67,3.54,3.54,0,0,1,.16-.34,67.66,67.66,0,0,1,81.18-32.79A5.1,5.1,0,0,1,152,36.93h0C152,37.05,151.92,37.17,151.87,37.29Z"/>
          <path id="Path_3" data-name="Path 3" class="cls-1" d="M144.67,54.24h0a5.11,5.11,0,0,1-6.11,2.93A39.06,39.06,0,0,0,93.64,75.31a5.09,5.09,0,0,1-6.42,2.14h0a5.13,5.13,0,0,1-2.73-6.72h0a5,5,0,0,1,.25-.52,49.36,49.36,0,0,1,56.67-22.89,5.14,5.14,0,0,1,3.45,6.38h0A4.93,4.93,0,0,1,144.67,54.24Z"/>
          <circle id="Ellipse_21" data-name="Ellipse 21" class="cls-1" cx="123.1" cy="83.6" r="14.49"/>
        </g>
        <path id="Path_31" data-name="Path 31" class="cls-1" d="M97.8,198.13c-10.65-4-24.72-6.17-39.62-6.17s-29,2.19-39.63,6.17C6.59,202.61,0,209.08,0,216.36v47.56c0,7.29,6.59,13.76,18.55,18.23,10.65,4,24.73,6.17,39.63,6.17s29-2.19,39.62-6.17c12-4.47,18.56-10.94,18.56-18.23V216.36C116.35,209.08,109.76,202.61,97.8,198.13Zm-39.62,2.3c30.34,0,49.7,9.43,49.7,15.93,0,2.15-2.15,4.64-6.11,7a52.21,52.21,0,0,1-11.59,4.8,114.6,114.6,0,0,1-32,4.13,114.53,114.53,0,0,1-32-4.13,52,52,0,0,1-11.59-4.8c-4-2.35-6.1-4.84-6.1-7,0-6.49,19.35-15.92,49.7-15.92Zm-43.6,32.5c1.25.59,2.57,1.14,4,1.65a102.74,102.74,0,0,0,26.1,5.56c4.38.41,8.91.62,13.52.62s9.15-.21,13.53-.62a102.74,102.74,0,0,0,26.1-5.56c1.4-.52,2.72-1.07,4-1.65,4,2.35,6.11,4.84,6.11,7s-2.29,4.81-6.53,7.23a54.15,54.15,0,0,1-11.89,4.77h0a116.25,116.25,0,0,1-31.28,3.92,116.3,116.3,0,0,1-31.28-3.92h0A53.66,53.66,0,0,1,15,247.16c-4.23-2.42-6.52-5-6.52-7.23s2.13-4.64,6.1-7Zm43.6,46.92c-30.35,0-49.7-9.43-49.7-15.92,0-2.24,2.28-4.81,6.52-7.24h0c1.13.51,2.31,1,3.55,1.46,10.65,4,24.73,6.18,39.63,6.18s29-2.2,39.62-6.18c1.24-.46,2.43-.95,3.55-1.46h0c4.24,2.43,6.53,5,6.53,7.24,0,6.49-19.36,15.92-49.7,15.92Z"/>
        <g id="Group_106" data-name="Group 106">
          <path id="Path_32" data-name="Path 32" class="cls-1" d="M1071.11,230.1v44.61H1026.5V230.1Zm-8.47,36.14V238.57H1035v27.67Z"/>
          <path id="Path_33" data-name="Path 33" class="cls-1" d="M1037.92,187.5h-8.48v23.36h-6.16a17.69,17.69,0,0,0-17.67,17.68v49a17.69,17.69,0,0,0,17.67,17.68h6.16v23.36h8.48V295.26h5.65v23.36H1052V295.26h5.65v23.36h8.48V295.26h6.15A17.71,17.71,0,0,0,1090,277.58v-49a17.71,17.71,0,0,0-17.69-17.68h-6.15V187.5h-8.47v23.36H1052V187.5h-8.47v23.36h-5.65Zm34.4,31.84a9.21,9.21,0,0,1,9.2,9.2v49a9.21,9.21,0,0,1-9.2,9.2h-49a9.22,9.22,0,0,1-9.2-9.2v-49a9.23,9.23,0,0,1,9.2-9.2Z"/>
        </g>
        <g id="Group_105" data-name="Group 105">
          <g id="_4." data-name=" 4." class="cls-2">
            <g class="cls-2">
              <path class="cls-3" d="M509.28,182H478.46l12.39-34-7.92,8.06H431.81l18.72-50.4h30.52l-10.36,27.94h25.48l10.52-27.94H537.5Z"/>
              <path class="cls-3" d="M526.41,171.08a16.12,16.12,0,0,1,5.62-6.63,14.24,14.24,0,0,1,8.35-2.73q4.18,0,6.34,2a6.93,6.93,0,0,1,2.16,5.32,10.86,10.86,0,0,1-1.66,5.33,15.3,15.3,0,0,1-4.53,4.9,14.07,14.07,0,0,1-8.5,2.73q-4.19,0-6.34-2a8.22,8.22,0,0,1-1.44-8.93Z"/>
            </g>
          </g>
          <g id="_0" data-name=" 0" class="cls-2">
            <g class="cls-2">
              <path class="cls-3" d="M655.54,155.31a58.57,58.57,0,0,1-10.73,13.18,57.91,57.91,0,0,1-14.47,9.72A38.71,38.71,0,0,1,613.63,182H599.81a81.73,81.73,0,0,1-15-1.29A32.69,32.69,0,0,1,573,176.19a22.51,22.51,0,0,1-7.77-8.64q-2.8-5.4-2.81-13.61c0-1.15,0-2.32.14-3.53s.24-2.46.44-3.81a39.56,39.56,0,0,1,5.25-14.19,60,60,0,0,1,10.44-13.17,57,57,0,0,1,13.75-9.72,33.51,33.51,0,0,1,15.2-3.82h18.14a65.17,65.17,0,0,1,14.54,1.52,31.4,31.4,0,0,1,11.38,4.89,22.81,22.81,0,0,1,7.34,8.64,28.21,28.21,0,0,1,2.6,12.6,34.81,34.81,0,0,1-.22,3.89c-.14,1.25-.31,2.54-.5,3.89A39,39,0,0,1,655.54,155.31ZM592.9,146v.72a13.7,13.7,0,0,0,.79,4.47,14.7,14.7,0,0,0,2.16,4.1,12.74,12.74,0,0,0,3.24,3,7,7,0,0,0,3.89,1.23h9.07a9.37,9.37,0,0,0,3.74-1.08,31,31,0,0,0,4.68-2.74A36.19,36.19,0,0,0,625,152a17.35,17.35,0,0,0,3.31-4.25,9.18,9.18,0,0,0,1.44-2.88l.58-1.44c.19-.86.33-1.53.43-2a23.52,23.52,0,0,0,.14-3.31,17.73,17.73,0,0,0-.36-3.6,8.6,8.6,0,0,0-1.36-3.17,7.25,7.25,0,0,0-2.81-2.3,10.42,10.42,0,0,0-4.54-.86H610.75a10.25,10.25,0,0,0-4.32,1.08,24,24,0,0,0-4.53,2.81,28.42,28.42,0,0,0-4.11,3.88,24.08,24.08,0,0,0-3,4.32v-.14q-.57,1.59-1.08,2.88a11.26,11.26,0,0,0-.65,2.16l-.57,1.29Z"/>
            </g>
          </g>
        </g>
        <line id="Line_25" data-name="Line 25" class="cls-4" x1="498.5" y1="77.7" x2="498.5" y2="77.7"/>
        <line id="Line_26" data-name="Line 26" class="cls-5" x1="163.5" y1="239.7" x2="498.5" y2="239.7"/>
        <line id="Line_27" data-name="Line 27" class="cls-5" x1="189.5" y1="45.7" x2="498.5" y2="45.7"/>
        <line id="Line_28" data-name="Line 28" class="cls-5" x1="911.5" y1="45.7" x2="631.5" y2="45.7"/>
        <line id="Line_29" data-name="Line 29" class="cls-5" x1="631.5" y1="262.7" x2="969.5" y2="262.7"/>
        <line id="Line_30" data-name="Line 30" class="cls-5" x1="498.5" y1="45.7" x2="498.5" y2="90.7"/>
        <line id="Line_31" data-name="Line 31" class="cls-5" x1="631.5" y1="45.7" x2="631.5" y2="77.7"/>
        <line id="Line_32" data-name="Line 32" class="cls-5" x1="498.5" y1="239.7" x2="498.5" y2="201.7"/>
        <line id="Line_33" data-name="Line 33" class="cls-5" x1="631.5" y1="262.7" x2="631.5" y2="201.7"/>
        <g id="Group_107" data-name="Group 107">
          <line id="Line_14" data-name="Line 14" class="cls-5" x1="877.31" y1="160.54" x2="877.31" y2="185.66"/>
          <line id="Line_15" data-name="Line 15" class="cls-5" x1="877.31" y1="185.66" x2="951.46" y2="185.66"/>
          <line id="Line_16" data-name="Line 16" class="cls-5" x1="686.48" y1="160.27" x2="1052.87" y2="160.27"/>
          <line id="Line_17" data-name="Line 17" class="cls-5" x1="937.65" y1="134.33" x2="1005.62" y2="134.33"/>
          <line id="Line_18" data-name="Line 18" class="cls-5" x1="937.65" y1="134.33" x2="937.65" y2="159.46"/>
          <line id="Line_19" data-name="Line 19" class="cls-5" x1="686.48" y1="134.87" x2="906.5" y2="134.7"/>
          <line id="Line_20" data-name="Line 20" class="cls-5" x1="906.58" y1="109.74" x2="906.58" y2="134.87"/>
          <g id="Ellipse_11" data-name="Ellipse 11">
            <circle class="cls-6" cx="906" cy="103.56" r="7.37"/>
            <circle class="cls-7" cx="906" cy="103.56" r="4.87"/>
          </g>
          <g id="Ellipse_12" data-name="Ellipse 12">
            <circle class="cls-6" cx="1012.54" cy="134.45" r="7.37"/>
            <circle class="cls-7" cx="1012.54" cy="134.45" r="4.87"/>
          </g>
          <g id="Ellipse_13" data-name="Ellipse 13">
            <circle class="cls-6" cx="1059.55" cy="160.34" r="7.37"/>
            <circle class="cls-7" cx="1059.55" cy="160.34" r="4.87"/>
          </g>
          <g id="Ellipse_14" data-name="Ellipse 14">
            <circle class="cls-6" cx="958.77" cy="185.83" r="7.37"/>
            <circle class="cls-7" cx="958.77" cy="185.83" r="4.87"/>
          </g>
        </g>
        <g id="Group_108" data-name="Group 108">
          <line id="Line_14-2" data-name="Line 14-2" class="cls-5" x1="211.09" y1="154.54" x2="211.09" y2="179.66"/>
          <line id="Line_15-2" data-name="Line 15-2" class="cls-5" x1="211.09" y1="179.66" x2="136.94" y2="179.66"/>
          <line id="Line_16-2" data-name="Line 16-2" class="cls-5" x1="401.92" y1="154.27" x2="35.53" y2="154.27"/>
          <line id="Line_17-2" data-name="Line 17-2" class="cls-5" x1="150.75" y1="128.33" x2="82.78" y2="128.33"/>
          <line id="Line_18-2" data-name="Line 18-2" class="cls-5" x1="150.75" y1="128.33" x2="150.75" y2="153.46"/>
          <line id="Line_19-2" data-name="Line 19-2" class="cls-5" x1="401.92" y1="128.87" x2="181.89" y2="128.7"/>
          <line id="Line_20-2" data-name="Line 20-2" class="cls-5" x1="181.82" y1="103.74" x2="181.82" y2="128.87"/>
          <g id="Ellipse_11-2" data-name="Ellipse 11-2">
            <circle class="cls-6" cx="182.39" cy="97.56" r="7.37"/>
            <circle class="cls-7" cx="182.39" cy="97.56" r="4.87"/>
          </g>
          <g id="Ellipse_12-2" data-name="Ellipse 12-2">
            <circle class="cls-6" cx="75.85" cy="128.45" r="7.37"/>
            <circle class="cls-7" cx="75.85" cy="128.45" r="4.87"/>
          </g>
          <g id="Ellipse_13-2" data-name="Ellipse 13-2">
            <circle class="cls-6" cx="28.85" cy="154.34" r="7.37"/>
            <circle class="cls-7" cx="28.85" cy="154.34" r="4.87"/>
          </g>
          <g id="Ellipse_14-2" data-name="Ellipse 14-2">
            <circle class="cls-6" cx="129.63" cy="179.83" r="7.37"/>
            <circle class="cls-7" cx="129.63" cy="179.83" r="4.87"/>
          </g>
        </g>
      </g>
    </g>
  </g>
</svg>
