<svg id="Layer_1" data-name="Layer 1" xmlns="http://www.w3.org/2000/svg" width="195.38" height="552.76" viewBox="0 0 195.38 552.76">
  <defs>
    <style>
      .cls-1, .cls-2, .cls-3 {
        fill: none;
      }

      .cls-1, .cls-3 {
        stroke: #3e3e3e;
        stroke-width: 5px;
      }

      .cls-1 {
        stroke-linecap: round;
      }
    </style>
  </defs>
  <title>hiasan1</title>
  <g id="Group_13" data-name="Group 13">
    <line id="Line_5" data-name="Line 5" class="cls-1" x1="150.57" y1="2.5" x2="150.57" y2="324.81"/>
    <line id="Line_6" data-name="Line 6" class="cls-1" x1="150.57" y1="324.81" x2="184.9" y2="324.81"/>
    <line id="Line_7" data-name="Line 7" class="cls-1" x1="185.27" y1="326.79" x2="185.27" y2="428.1"/>
    <line id="Line_10" data-name="Line 10" class="cls-1" x1="150.94" y1="377.45" x2="150.57" y2="532.4"/>
    <line id="Line_11" data-name="Line 11" class="cls-1" x1="115.87" y1="2.5" x2="115.87" y2="483.73"/>
    <line id="Line_12" data-name="Line 12" class="cls-1" x1="115.87" y1="377.45" x2="150.2" y2="377.45"/>
    <line id="Line_14" data-name="Line 14" class="cls-1" x1="44.63" y1="263.23" x2="10.3" y2="263.23"/>
    <line id="Line_15" data-name="Line 15" class="cls-1" x1="10.3" y1="263.23" x2="10.3" y2="364.54"/>
    <line id="Line_16" data-name="Line 16" class="cls-1" x1="45" y1="2.5" x2="45" y2="503.09"/>
    <line id="Line_17" data-name="Line 17" class="cls-1" x1="80.43" y1="345.67" x2="80.43" y2="438.53"/>
    <line id="Line_18" data-name="Line 18" class="cls-1" x1="80.43" y1="345.67" x2="46.1" y2="345.67"/>
    <line id="Line_19" data-name="Line 19" class="cls-1" x1="79.69" y1="2.5" x2="79.69" y2="278.62"/>
    <line id="Line_20" data-name="Line 20" class="cls-1" x1="114.02" y1="278.62" x2="79.69" y2="278.62"/>
    <g id="Ellipse_9" data-name="Ellipse 9">
      <circle class="cls-2" cx="185.31" cy="437.66" r="10.07"/>
      <circle class="cls-3" cx="185.31" cy="437.66" r="7.57"/>
    </g>
    <g id="Ellipse_10" data-name="Ellipse 10">
      <circle class="cls-2" cx="151.02" cy="542.69" r="10.07"/>
      <circle class="cls-3" cx="151.02" cy="542.69" r="7.57"/>
    </g>
    <g id="Ellipse_11" data-name="Ellipse 11">
      <circle class="cls-2" cx="115.65" cy="493.71" r="10.07"/>
      <circle class="cls-3" cx="115.65" cy="493.71" r="7.57"/>
    </g>
    <g id="Ellipse_12" data-name="Ellipse 12">
      <circle class="cls-2" cx="80.27" cy="448" r="10.07"/>
      <circle class="cls-3" cx="80.27" cy="448" r="7.57"/>
    </g>
    <g id="Ellipse_13" data-name="Ellipse 13">
      <circle class="cls-2" cx="44.9" cy="512.22" r="10.07"/>
      <circle class="cls-3" cx="44.9" cy="512.22" r="7.57"/>
    </g>
    <g id="Ellipse_14" data-name="Ellipse 14">
      <circle class="cls-2" cx="10.07" cy="374.52" r="10.07"/>
      <circle class="cls-3" cx="10.07" cy="374.52" r="7.57"/>
    </g>
  </g>
</svg>
