<svg id="Layer_1" data-name="Layer 1" xmlns="http://www.w3.org/2000/svg" width="716.3" height="422.16" viewBox="0 0 716.3 422.16">
  <defs>
    <style>
      .cls-1 {
        isolation: isolate;
      }

      .cls-2 {
        fill: #303030;
      }

      .cls-3 {
        fill: #fff;
      }
    </style>
  </defs>
  <title>judul</title>
  <g id="Group_15" data-name="Group 15">
    <g id="_4.0" data-name=" 4.0" class="cls-1">
      <g class="cls-1">
        <path class="cls-2" d="M58.48,109.79V367.13h49v67.18h-49V518h-82V434.31H-201.42V364q23.63-26.46,49-57.93t49-64.76q23.63-33.3,44-67a672.93,672.93,0,0,0,34.59-64.47ZM-120.86,367.13H-23.5V224.51q-10,18.51-21.64,37.43t-24.48,37.29q-12.81,18.36-25.91,35.59T-120.86,367.13Z" transform="translate(201.42 -102.95)"/>
        <path class="cls-2" d="M160,525.12q-22.2,0-37-13.67t-14.81-33.59q0-20.49,15.23-33.59t38-13.09q23.06,0,37.72,13.23t14.66,33.45q0,20.79-14.95,34T160,525.12Z" transform="translate(201.42 -102.95)"/>
        <path class="cls-2" d="M364.58,525.12q-145.75,0-145.75-204.68,0-106.17,39.42-161.83T372.55,103q142.33,0,142.33,208.1,0,103.62-38.85,158.84T364.58,525.12Zm4-353.56q-58.35,0-58.35,146.6,0,138.07,57.21,138.07,55.8,0,55.8-142.34T368.56,171.56Z" transform="translate(201.42 -102.95)"/>
      </g>
    </g>
    <g id="REVOLUSI_INDUSTRI" data-name="REVOLUSI INDUSTRI" class="cls-1">
      <g class="cls-1">
        <path class="cls-3" d="M-125.1,293h-9.18l-11-18.45a40.41,40.41,0,0,0-2.94-4.38,16.41,16.41,0,0,0-2.92-3,9.89,9.89,0,0,0-3.21-1.68,13.29,13.29,0,0,0-3.88-.53h-6.33v28h-7.71V227.18h19.64a28,28,0,0,1,8,1.08,17.81,17.81,0,0,1,6.33,3.28,15.26,15.26,0,0,1,4.2,5.49,18.15,18.15,0,0,1,1.51,7.68,18.54,18.54,0,0,1-1,6.32,16.51,16.51,0,0,1-2.94,5.11,17.91,17.91,0,0,1-4.59,3.84,23.59,23.59,0,0,1-6,2.45v.19a13.8,13.8,0,0,1,2.87,1.67,16.13,16.13,0,0,1,2.32,2.23,30.19,30.19,0,0,1,2.18,2.91c.71,1.09,1.52,2.35,2.41,3.79Zm-39.47-58.84V258h10.46a15.68,15.68,0,0,0,5.35-.88,12.35,12.35,0,0,0,4.25-2.5,11.37,11.37,0,0,0,2.8-4,13.43,13.43,0,0,0,1-5.3,10.31,10.31,0,0,0-3.42-8.24q-3.42-3-9.89-3Z" transform="translate(201.42 -102.95)"/>
        <path class="cls-3" d="M-43.1,293H-78V227.18h33.42v7h-25.7v21.89H-46.5V263H-70.27v23H-43.1Z" transform="translate(201.42 -102.95)"/>
        <path class="cls-3" d="M56.56,227.18,32.19,293H23.7L-.17,227.18H8.42l18.22,52.19A31.24,31.24,0,0,1,28,285.2h.18a28.54,28.54,0,0,1,1.52-5.92l18.59-52.1Z" transform="translate(201.42 -102.95)"/>
        <path class="cls-3" d="M128.32,294.1q-14,0-22.42-9.22t-8.42-24q0-15.88,8.58-25.33t23.36-9.46q13.64,0,22,9.18t8.33,24q0,16.11-8.54,25.48T128.32,294.1Zm.55-61A21.2,21.2,0,0,0,112,240.54q-6.48,7.49-6.47,19.64t6.31,19.58a20.57,20.57,0,0,0,16.45,7.41q10.83,0,17.08-7.07t6.24-19.78q0-13-6.06-20.15T128.87,233.06Z" transform="translate(201.42 -102.95)"/>
        <path class="cls-3" d="M244.88,293H210.73V227.18h7.71V286h26.44Z" transform="translate(201.42 -102.95)"/>
        <path class="cls-3" d="M339.36,266.38q0,27.72-25,27.72-24,0-24-26.67V227.18h7.71v39.75q0,20.24,17.08,20.24,16.47,0,16.48-19.55V227.18h7.71Z" transform="translate(201.42 -102.95)"/>
        <path class="cls-3" d="M390.78,290.34v-9.09a17.69,17.69,0,0,0,3.75,2.48,31,31,0,0,0,4.59,1.86,37.46,37.46,0,0,0,4.84,1.17,27.54,27.54,0,0,0,4.5.41q7.11,0,10.62-2.64a9.9,9.9,0,0,0,2.34-12.23,13.11,13.11,0,0,0-3.23-3.6,31.74,31.74,0,0,0-4.89-3.12q-2.82-1.5-6.08-3.15-3.45-1.74-6.43-3.53A28.1,28.1,0,0,1,395.6,255a16.44,16.44,0,0,1-3.46-4.89,16.69,16.69,0,0,1,.71-14.23,17,17,0,0,1,5.19-5.48,23.34,23.34,0,0,1,7.32-3.21,33.17,33.17,0,0,1,8.37-1.06q9.74,0,14.19,2.34v8.68q-5.84-4-15-4a24.81,24.81,0,0,0-5.05.52,14.29,14.29,0,0,0-4.49,1.73,10,10,0,0,0-3.22,3.07A8.24,8.24,0,0,0,399,243a9.54,9.54,0,0,0,.94,4.36,10.72,10.72,0,0,0,2.78,3.35,28,28,0,0,0,4.48,2.94c1.76.95,3.78,2,6.08,3.12s4.59,2.39,6.7,3.67a30.86,30.86,0,0,1,5.55,4.27,18.9,18.9,0,0,1,3.79,5.19,14.59,14.59,0,0,1,1.4,6.51,16.6,16.6,0,0,1-1.9,8.24,15.73,15.73,0,0,1-5.14,5.49,22.53,22.53,0,0,1-7.46,3.05,40.77,40.77,0,0,1-8.91.94,35.67,35.67,0,0,1-3.85-.25c-1.53-.17-3.09-.41-4.69-.73a39.21,39.21,0,0,1-4.52-1.2A14.08,14.08,0,0,1,390.78,290.34Z" transform="translate(201.42 -102.95)"/>
        <path class="cls-3" d="M489.58,293h-7.71V227.18h7.71Z" transform="translate(201.42 -102.95)"/>
      </g>
      <g class="cls-1">
        <path class="cls-3" d="M-161.36,388h-7.71V322.18h7.71Z" transform="translate(201.42 -102.95)"/>
        <path class="cls-3" d="M-52.93,388h-9.45l-33.87-52.46a22.39,22.39,0,0,1-2.12-4.13h-.27a68.45,68.45,0,0,1,.37,9V388H-106V322.18h10l33,51.64q2.06,3.21,2.66,4.4h.18a70.41,70.41,0,0,1-.46-9.68V322.18h7.71Z" transform="translate(201.42 -102.95)"/>
        <path class="cls-3" d="M2.4,388V322.18H20.58q34.79,0,34.79,32.08,0,15.24-9.66,24.49T19.84,388Zm7.71-58.84V381h9.83q12.93,0,20.14-6.93t7.21-19.64q0-25.29-26.9-25.29Z" transform="translate(201.42 -102.95)"/>
        <path class="cls-3" d="M154.53,361.38q0,27.72-25,27.72-24,0-23.95-26.67V322.18h7.71v39.75q0,20.24,17.07,20.24,16.49,0,16.48-19.55V322.18h7.71Z" transform="translate(201.42 -102.95)"/>
        <path class="cls-3" d="M206,385.34v-9.09a17.61,17.61,0,0,0,3.74,2.48,31,31,0,0,0,4.59,1.86,37.86,37.86,0,0,0,4.84,1.17,27.54,27.54,0,0,0,4.5.41q7.11,0,10.62-2.64a9.9,9.9,0,0,0,2.34-12.23,13.11,13.11,0,0,0-3.23-3.6,31.74,31.74,0,0,0-4.89-3.12q-2.82-1.5-6.08-3.15-3.45-1.74-6.43-3.53a27.68,27.68,0,0,1-5.18-3.95,16.47,16.47,0,0,1-3.47-4.89,16.69,16.69,0,0,1,.71-14.23,17.09,17.09,0,0,1,5.19-5.48,23.34,23.34,0,0,1,7.32-3.21,33.25,33.25,0,0,1,8.38-1.06q9.72,0,14.18,2.34v8.68q-5.84-4.05-15-4a24.67,24.67,0,0,0-5,.52,14.25,14.25,0,0,0-4.5,1.73,9.83,9.83,0,0,0-3.21,3.07,8.16,8.16,0,0,0-1.24,4.59,9.41,9.41,0,0,0,.94,4.36,10.55,10.55,0,0,0,2.77,3.35,28,28,0,0,0,4.48,2.94q2.64,1.42,6.08,3.12c2.36,1.16,4.59,2.39,6.7,3.67a31.3,31.3,0,0,1,5.56,4.27,18.86,18.86,0,0,1,3.78,5.19,14.46,14.46,0,0,1,1.4,6.51,16.49,16.49,0,0,1-1.9,8.24,15.73,15.73,0,0,1-5.14,5.49,22.53,22.53,0,0,1-7.46,3.05,40.77,40.77,0,0,1-8.91.94,35.67,35.67,0,0,1-3.85-.25c-1.53-.17-3.09-.41-4.68-.73a38.15,38.15,0,0,1-4.52-1.2A13.73,13.73,0,0,1,206,385.34Z" transform="translate(201.42 -102.95)"/>
        <path class="cls-3" d="M336,329.16H317V388h-7.71V329.16h-19v-7H336Z" transform="translate(201.42 -102.95)"/>
        <path class="cls-3" d="M431.54,388h-9.18l-11-18.45a40.41,40.41,0,0,0-2.94-4.38,16.41,16.41,0,0,0-2.92-3,9.89,9.89,0,0,0-3.21-1.68,13.29,13.29,0,0,0-3.88-.53h-6.33v28h-7.71V322.18H404a27.91,27.91,0,0,1,8,1.08,17.77,17.77,0,0,1,6.34,3.28,15.26,15.26,0,0,1,4.2,5.49,18.15,18.15,0,0,1,1.51,7.68,18.54,18.54,0,0,1-1,6.32,16.51,16.51,0,0,1-2.94,5.11,17.91,17.91,0,0,1-4.59,3.84,23.59,23.59,0,0,1-6,2.45v.19a13.8,13.8,0,0,1,2.87,1.67,15.58,15.58,0,0,1,2.31,2.23,28.65,28.65,0,0,1,2.19,2.91c.71,1.09,1.52,2.35,2.4,3.79Zm-39.47-58.84V353h10.46a15.68,15.68,0,0,0,5.35-.88,12.35,12.35,0,0,0,4.25-2.5,11.37,11.37,0,0,0,2.8-4,13.43,13.43,0,0,0,1-5.3,10.34,10.34,0,0,0-3.42-8.24q-3.42-3-9.89-3Z" transform="translate(201.42 -102.95)"/>
        <path class="cls-3" d="M486.36,388h-7.71V322.18h7.71Z" transform="translate(201.42 -102.95)"/>
      </g>
    </g>
  </g>
</svg>
