<svg xmlns="http://www.w3.org/2000/svg" width="91.49" height="30.97" viewBox="0 0 91.49 30.97">
  <defs>
    <style>
      .cls-1 {
        fill: #ed2024;
      }
    </style>
  </defs>
  <title>Asset 2</title>
  <g id="Layer_2" data-name="Layer 2">
    <g id="Layer_1-2" data-name="Layer 1">
      <g>
        <path class="cls-1" d="M37.11,44.71H24.6l5-13.79-3.21,3.27H5.67l7.6-20.46H25.66L21.45,25.07H31.79l4.27-11.34H48.57Z" transform="translate(-5.67 -13.73)"/>
        <path class="cls-1" d="M44.07,40.27a6.4,6.4,0,0,1,2.27-2.69,5.82,5.82,0,0,1,3.39-1.11,3.65,3.65,0,0,1,2.58.82,2.81,2.81,0,0,1,.87,2.16,4.37,4.37,0,0,1-.67,2.16,6.22,6.22,0,0,1-1.84,2,5.69,5.69,0,0,1-3.45,1.11,3.61,3.61,0,0,1-2.57-.82,2.85,2.85,0,0,1-.88-2.16A2.77,2.77,0,0,1,44.07,40.27Z" transform="translate(-5.67 -13.73)"/>
      </g>
      <path class="cls-1" d="M94.71,33.87a23.58,23.58,0,0,1-4.36,5.34,23.18,23.18,0,0,1-5.87,3.95,15.7,15.7,0,0,1-6.78,1.55H72.09A33.09,33.09,0,0,1,66,44.18a13.14,13.14,0,0,1-4.82-1.84A9.13,9.13,0,0,1,58,38.83a11.89,11.89,0,0,1-1.14-5.52c0-.47,0-.94.05-1.43s.1-1,.18-1.55a16,16,0,0,1,2.13-5.76,24.37,24.37,0,0,1,4.24-5.34,23.35,23.35,0,0,1,5.58-4,13.62,13.62,0,0,1,6.17-1.55h7.36a26.45,26.45,0,0,1,5.9.62,12.85,12.85,0,0,1,4.62,2,9.28,9.28,0,0,1,3,3.51,11.47,11.47,0,0,1,1,5.11c0,.55,0,1.08-.08,1.58s-.13,1-.21,1.58A15.73,15.73,0,0,1,94.71,33.87ZM69.29,30.1v.29a5.4,5.4,0,0,0,.32,1.81,5.76,5.76,0,0,0,.87,1.67,5.29,5.29,0,0,0,1.32,1.22,2.76,2.76,0,0,0,1.58.5h3.68a3.73,3.73,0,0,0,1.52-.44A13.13,13.13,0,0,0,80.48,34a15.29,15.29,0,0,0,1.84-1.52,7.06,7.06,0,0,0,1.34-1.72,4.08,4.08,0,0,0,.59-1.17l.23-.58c.08-.35.14-.63.18-.82a11.6,11.6,0,0,0,0-1.35,7,7,0,0,0-.14-1.46A3.34,3.34,0,0,0,84,24.14a2.89,2.89,0,0,0-1.14-.94A4.28,4.28,0,0,0,81,22.85h-4.5a4.18,4.18,0,0,0-1.75.44,9.57,9.57,0,0,0-1.84,1.14A11.33,11.33,0,0,0,71.27,26a9.75,9.75,0,0,0-1.22,1.75V27.7l-.44,1.17a4.42,4.42,0,0,0-.27.88l-.23.52Z" transform="translate(-5.67 -13.73)"/>
    </g>
  </g>
</svg>
