<svg xmlns="http://www.w3.org/2000/svg" width="205.93" height="170.54" viewBox="0 0 205.93 170.54">
  <defs>
    <style>
      .cls-1 {
        fill: #fff;
      }
    </style>
  </defs>
  <title>icon_bd</title>
  <g id="Layer_2" data-name="Layer 2">
    <g id="Layer_1-2" data-name="Layer 1">
      <path class="cls-1" d="M173.09,10.92C154.24,3.88,129.34,0,103,0S51.68,3.88,32.83,10.92C11.66,18.84,0,30.29,0,43.18v84.18c0,12.89,11.66,24.34,32.83,32.26,18.85,7,43.76,10.92,70.13,10.92s51.28-3.88,70.13-10.92c21.17-7.92,32.84-19.37,32.84-32.26V43.18C205.93,30.29,194.26,18.84,173.09,10.92ZM103,15c53.7,0,88,16.69,88,28.18,0,3.81-3.79,8.21-10.81,12.37A91.52,91.52,0,0,1,159.61,64C145,68.37,125.71,71.36,103,71.36s-42-3-56.65-7.32A91.72,91.72,0,0,1,25.8,55.55C18.78,51.39,15,47,15,43.18,15,31.69,49.26,15,103,15ZM25.81,72.51q3.32,1.55,7,2.92c13,4.87,28.92,8.22,46.2,9.84C86.78,86,94.8,86.36,103,86.36s16.19-.37,23.94-1.09c17.28-1.62,33.18-5,46.19-9.84q3.71-1.38,7-2.92c7,4.16,10.82,8.56,10.82,12.38s-4.05,8.52-11.55,12.8a95.75,95.75,0,0,1-21,8.44h0c-14.48,4.12-33.27,6.94-55.36,6.94s-40.88-2.82-55.36-6.94h0a95.75,95.75,0,0,1-21.05-8.44C19.05,93.41,15,88.84,15,84.89S18.78,76.68,25.81,72.51Zm77.15,83c-53.7,0-88-16.69-88-28.18,0-4,4.05-8.51,11.54-12.8h0q3,1.35,6.28,2.58c18.85,7,43.76,10.93,70.13,10.93s51.28-3.88,70.13-10.93q3.3-1.23,6.28-2.58h0c7.5,4.29,11.55,8.85,11.55,12.8C190.93,138.85,156.66,155.54,103,155.54Z"/>
    </g>
  </g>
</svg>
