<svg id="Layer_1" data-name="Layer 1" xmlns="http://www.w3.org/2000/svg" width="830.83" height="422.16" viewBox="0 0 830.83 422.16">
  <defs>
    <style>
      .cls-1 {
        isolation: isolate;
      }

      .cls-2 {
        fill: #303030;
      }

      .cls-3 {
        fill: #fff;
      }
    </style>
  </defs>
  <title>judulcc</title>
  <g>
    <g id="CC" class="cls-1">
      <g class="cls-1">
        <path class="cls-2" d="M179.19,449.48q-44.7,21.64-116.71,21.64-93.94,0-147.75-55.23t-53.8-147.17q0-97.92,60.49-158.85T78.42,49Q138.2,49,179.19,64v88.53q-41-24.48-93.37-24.48-57.51,0-92.8,36.15t-35.3,97.93q0,59.22,33.3,94.37t89.67,35.15q53.81,0,98.5-26.19Z" transform="translate(242.96 -48.95)"/>
        <path class="cls-2" d="M484.24,449.48q-44.7,21.64-116.72,21.64-93.93,0-147.74-55.23T166,268.72q0-97.92,60.49-158.85T383.46,49Q443.25,49,484.24,64v88.53q-41-24.48-93.37-24.48-57.51,0-92.81,36.15t-35.29,97.93q0,59.22,33.3,94.37t89.67,35.15q53.81,0,98.5-26.19Z" transform="translate(242.96 -48.95)"/>
      </g>
    </g>
    <g id="CLOUD_COMPUTING" data-name="CLOUD COMPUTING" class="cls-1">
      <g class="cls-1">
        <path class="cls-3" d="M.8,244.25q-7.29,3.85-18.17,3.85-14.05,0-22.49-9t-8.45-23.73q0-15.79,9.5-25.52t24.1-9.73q9.36,0,15.51,2.71V191a31.45,31.45,0,0,0-15.6-3.94q-11.34,0-18.38,7.57t-7,20.24q0,12,6.59,19.16t17.28,7.14A32.36,32.36,0,0,0,.8,236.76Z" transform="translate(242.96 -48.95)"/>
        <path class="cls-3" d="M86.42,247H52.28V181.18H60V240H86.42Z" transform="translate(242.96 -48.95)"/>
        <path class="cls-3" d="M157.91,248.1q-14,0-22.42-9.22t-8.43-24q0-15.88,8.59-25.33T159,180.08q13.63,0,22,9.18t8.33,24q0,16.11-8.53,25.48T157.91,248.1Zm.55-61a21.22,21.22,0,0,0-16.85,7.48q-6.47,7.49-6.47,19.64t6.31,19.58a20.6,20.6,0,0,0,16.46,7.41q10.83,0,17.07-7.07t6.25-19.78q0-13-6.06-20.15T158.46,187.06Z" transform="translate(242.96 -48.95)"/>
        <path class="cls-3" d="M288.46,220.38q0,27.72-25,27.72-24,0-24-26.67V181.18h7.71v39.75q0,20.23,17.08,20.24,16.47,0,16.47-19.55V181.18h7.71Z" transform="translate(242.96 -48.95)"/>
        <path class="cls-3" d="M343,247V181.18h18.17q34.78,0,34.79,32.08,0,15.24-9.66,24.49T360.41,247Zm7.71-58.84V240h9.82q12.94,0,20.15-6.93t7.2-19.64q0-25.29-26.89-25.29Z" transform="translate(242.96 -48.95)"/>
      </g>
      <g class="cls-1">
        <path class="cls-3" d="M-193.85,339.25q-7.31,3.86-18.18,3.85-14,0-22.49-9T-243,310.33q0-15.79,9.5-25.52t24.1-9.73q9.36,0,15.51,2.71V286a31.49,31.49,0,0,0-15.61-3.94q-11.32,0-18.38,7.57t-7,20.24q0,12,6.58,19.16t17.28,7.14a32.42,32.42,0,0,0,17.17-4.41Z" transform="translate(242.96 -48.95)"/>
        <path class="cls-3" d="M-118.37,343.1q-14,0-22.43-9.22t-8.42-24q0-15.89,8.59-25.33t23.36-9.46q13.63,0,22,9.18t8.33,24q0,16.11-8.54,25.48T-118.37,343.1Zm.55-61a21.22,21.22,0,0,0-16.85,7.48q-6.47,7.48-6.47,19.64t6.31,19.58a20.59,20.59,0,0,0,16.46,7.41q10.83,0,17.07-7.07t6.24-19.78q0-13-6.06-20.15T-117.82,282.06Z" transform="translate(242.96 -48.95)"/>
        <path class="cls-3" d="M31.14,342H23.47V297.85q0-5.24.65-12.81h-.19a40.8,40.8,0,0,1-2,6.38L-.53,342H-4.3l-22.44-50.21a39.41,39.41,0,0,1-2-6.75h-.19q.38,3.94.37,12.9V342H-36V276.18h10.19l20.2,45.9a59.29,59.29,0,0,1,3,7.89h.27C-1,326.36.09,323.67.89,321.9L21.5,276.18h9.64Z" transform="translate(242.96 -48.95)"/>
        <path class="cls-3" d="M94.22,317.12V342H86.51V276.18H104.6q10.55,0,16.36,5.14t5.8,14.51a20,20,0,0,1-6.44,15.33q-6.45,6-17.42,6Zm0-34v27h8.08q8,0,12.19-3.65t4.2-10.31q0-13-15.43-13Z" transform="translate(242.96 -48.95)"/>
        <path class="cls-3" d="M225.37,315.38q0,27.72-25,27.72-24,0-24-26.67V276.18h7.71v39.75q0,20.24,17.08,20.24,16.47,0,16.47-19.55V276.18h7.71Z" transform="translate(242.96 -48.95)"/>
        <path class="cls-3" d="M318.8,283.16h-19V342h-7.72V283.16H273.13v-7H318.8Z" transform="translate(242.96 -48.95)"/>
        <path class="cls-3" d="M374.91,342h-7.72V276.18h7.72Z" transform="translate(242.96 -48.95)"/>
        <path class="cls-3" d="M483.34,342h-9.46L440,289.54a21.74,21.74,0,0,1-2.11-4.13h-.28a66.66,66.66,0,0,1,.37,9V342h-7.71V276.18h10l32.95,51.64c1.38,2.14,2.26,3.61,2.66,4.4h.19a68.8,68.8,0,0,1-.46-9.68V276.18h7.71Z" transform="translate(242.96 -48.95)"/>
        <path class="cls-3" d="M587.87,337.5a43.93,43.93,0,0,1-22,5.6q-14.1,0-22.79-9.09T534.35,310q0-15.29,9.66-25.08t24.49-9.8q10.74,0,18,3.49v8.54a34.63,34.63,0,0,0-18.91-5.05q-11.07,0-18.13,7.62t-7.07,19.73q0,12.49,6.56,19.62t17.81,7.14a27.55,27.55,0,0,0,13.36-3.07V314.64H565.75v-7h22.12Z" transform="translate(242.96 -48.95)"/>
      </g>
    </g>
  </g>
</svg>
