<svg xmlns="http://www.w3.org/2000/svg" width="191.15" height="158.91" viewBox="0 0 191.15 158.91">
  <defs>
    <style>
      .cls-1 {
        fill: #fff;
      }
    </style>
  </defs>
  <title>icon_iot</title>
  <g id="Layer_2" data-name="Layer 2">
    <g id="Layer_1-2" data-name="Layer 1">
      <g id="Group_14" data-name="Group 14">
        <path id="Path_1" data-name="Path 1" class="cls-1" d="M190.54,18.79h0a9.11,9.11,0,0,1-11.28,5.38A134.44,134.44,0,0,0,17.38,96.45a9.11,9.11,0,0,1-11.53,4.81h0A9.06,9.06,0,0,1,.59,89.58c.06-.16.13-.31.2-.47A152.6,152.6,0,0,1,184.87,6.91a9,9,0,0,1,5.84,11.38C190.66,18.46,190.6,18.63,190.54,18.79Z"/>
        <path id="Path_2" data-name="Path 2" class="cls-1" d="M178.78,49.49h0a9.11,9.11,0,0,1-11.14,5.43A101.61,101.61,0,0,0,48,108.33,9.12,9.12,0,0,1,36.56,113h0a9,9,0,0,1-5.28-11.63,6.57,6.57,0,0,1,.26-.61A119.76,119.76,0,0,1,173,37.58a9,9,0,0,1,6,11.28C178.94,49.07,178.86,49.29,178.78,49.49Z"/>
        <path id="Path_3" data-name="Path 3" class="cls-1" d="M167.13,79.94h0a9,9,0,0,1-10.62,5.56,69.14,69.14,0,0,0-78.28,35A9,9,0,0,1,67,124.67h0a9.08,9.08,0,0,1-5.24-11.73,7.78,7.78,0,0,1,.42-.93A87.31,87.31,0,0,1,160.93,67.9,9.07,9.07,0,0,1,167.44,79C167.35,79.3,167.25,79.62,167.13,79.94Z"/>
        <circle id="Ellipse_21" data-name="Ellipse 21" class="cls-1" cx="130.86" cy="133.26" r="25.65"/>
      </g>
    </g>
  </g>
</svg>
