<svg id="Layer_1" data-name="Layer 1" xmlns="http://www.w3.org/2000/svg" width="694.47" height="408.21" viewBox="0 0 694.47 408.21">
  <defs>
    <style>
      .cls-1 {
        isolation: isolate;
      }

      .cls-2 {
        fill: #303030;
      }

      .cls-3 {
        fill: #fff;
      }
    </style>
  </defs>
  <title>judulbd</title>
  <g id="Group_25" data-name="Group 25">
    <g id="BD" class="cls-1">
      <g class="cls-1">
        <path class="cls-2" d="M-203.14,556V147.79h148.6q68.32,0,105,25.05t36.73,70.59q0,33-22.35,57.79T7.8,335.67v1.14q43.56,5.4,69.6,32.16t26.05,65.19q0,56.08-40.14,89T-46.28,556Zm91.95-340.46v96.78h40.43q28.46,0,44.83-13.8t16.37-38q0-45-67.18-45Zm0,165.1V488.25h49.82q31.88,0,50-14.8T6.67,433q0-24.48-17.8-38.43T-60.8,380.64Z" transform="translate(203.14 -147.79)"/>
        <path class="cls-2" d="M129.24,556V147.79H273.85q217.48,0,217.49,199,0,95.37-59.36,152.3T273.85,556Zm91.95-333.35V481.42h45.54q59.79,0,93.8-35.87t34-97.64q0-58.35-33.73-91.81t-94.65-33.45Z" transform="translate(203.14 -147.79)"/>
      </g>
    </g>
    <g id="BIG_DATA" data-name="BIG DATA" class="cls-1">
      <g class="cls-1">
        <path class="cls-3" d="M29.77,339V273.18H48.5q8.53,0,13.54,4.18a13.51,13.51,0,0,1,5,10.88A16,16,0,0,1,64,298a16.32,16.32,0,0,1-8.35,5.87V304a16.73,16.73,0,0,1,10.65,5,15.47,15.47,0,0,1,4,11,17.21,17.21,0,0,1-6.06,13.68Q58.18,339,49,339Zm7.71-58.84v21.25h7.9q6.33,0,10-3.05T59,289.75q0-9.58-12.62-9.59Zm0,28.18V332H48q6.79,0,10.53-3.21A11,11,0,0,0,62.22,320q0-11.65-15.88-11.66Z" transform="translate(203.14 -147.79)"/>
        <path class="cls-3" d="M129.44,339h-7.71V273.18h7.71Z" transform="translate(203.14 -147.79)"/>
        <path class="cls-3" d="M234,334.5a43.91,43.91,0,0,1-22,5.6q-14.08,0-22.79-9.09T180.5,307q0-15.29,9.66-25.08t24.49-9.8q10.74,0,18,3.49v8.54a34.58,34.58,0,0,0-18.91-5.05q-11.06,0-18.13,7.62t-7.06,19.73q0,12.49,6.56,19.62T213,333.17a27.48,27.48,0,0,0,13.35-3.07V311.64H211.89v-7H234Z" transform="translate(203.14 -147.79)"/>
      </g>
      <g class="cls-1">
        <path class="cls-3" d="M-28.1,434V368.18H-9.92q34.78,0,34.79,32.08,0,15.24-9.66,24.49T-10.65,434Zm7.72-58.84V427h9.82q12.95,0,20.15-6.93t7.2-19.64q0-25.29-26.89-25.29Z" transform="translate(203.14 -147.79)"/>
        <path class="cls-3" d="M124.54,434H116l-7-18.45H81.12L74.55,434H66l25.24-65.82h8Zm-18-25.38L96.17,380.57a26.52,26.52,0,0,1-1-4.4H95a24.5,24.5,0,0,1-1.06,4.4L83.69,408.62Z" transform="translate(203.14 -147.79)"/>
        <path class="cls-3" d="M204.47,375.16h-19V434h-7.71V375.16H158.8v-7h45.67Z" transform="translate(203.14 -147.79)"/>
        <path class="cls-3" d="M297.39,434h-8.54l-7-18.45H254L247.4,434h-8.58l25.24-65.82h8Zm-18-25.38L269,380.57a26.52,26.52,0,0,1-1-4.4h-.18a24.5,24.5,0,0,1-1.06,4.4l-10.23,28.05Z" transform="translate(203.14 -147.79)"/>
      </g>
    </g>
  </g>
</svg>
