<svg xmlns="http://www.w3.org/2000/svg" width="232.08" height="149.37" viewBox="0 0 232.08 149.37">
  <defs>
    <style>
      .cls-1 {
        fill: #fff;
      }
    </style>
  </defs>
  <title>Asset 1</title>
  <g id="Layer_2" data-name="Layer 2">
    <g id="Layer_1-2" data-name="Layer 1">
      <path class="cls-1" d="M155.52,114.17h-79v-79h79Zm-64-15h49v-49h-49Z"/>
      <path class="cls-1" d="M232.08,57.19v-15H190.72V31.29A31.33,31.33,0,0,0,159.43,0H72.64A31.33,31.33,0,0,0,41.35,31.29v10.9H0v15H41.35v10H0v15H41.35v10H0v15H41.35v10.89a31.32,31.32,0,0,0,31.29,31.29h86.79a31.32,31.32,0,0,0,31.29-31.29V107.19h41.36v-15H190.72v-10h41.36v-15H190.72v-10Zm-56.36,60.89a16.31,16.31,0,0,1-16.29,16.29H72.64a16.31,16.31,0,0,1-16.29-16.29V31.29A16.31,16.31,0,0,1,72.64,15h86.79a16.31,16.31,0,0,1,16.29,16.29Z"/>
    </g>
  </g>
</svg>
