<svg id="Layer_1" data-name="Layer 1" xmlns="http://www.w3.org/2000/svg" width="759.66" height="408.21" viewBox="0 0 759.66 408.21">
  <defs>
    <style>
      .cls-1 {
        isolation: isolate;
      }

      .cls-2 {
        fill: #303030;
      }

      .cls-3 {
        fill: #fff;
      }
    </style>
  </defs>
  <title>judulml</title>
  <g id="Group_25" data-name="Group 25">
    <g id="ML" class="cls-1">
      <g class="cls-1">
        <path class="cls-2" d="M382.15,740.57H291.34V496.33q0-39.57,3.42-87.4h-2.28q-7.12,37.57-12.81,54.09L184,740.57H108.87L11.51,465.87q-4-11.1-12.81-56.94H-3.86q3.69,60.36,3.7,105.9V740.57H-83V332.36H51.65l83.41,242a341.15,341.15,0,0,1,14.52,58.35h1.7a590.13,590.13,0,0,1,16.23-58.92l83.41-241.4H382.15Z" transform="translate(83 -332.36)"/>
        <path class="cls-2" d="M676.67,740.57H433.56V332.36h91.95V666H676.67Z" transform="translate(83 -332.36)"/>
      </g>
    </g>
    <g id="MACHINE_LEARNING" data-name="MACHINE LEARNING" class="cls-1">
      <g class="cls-1">
        <path class="cls-3" d="M33.06,523.57H25.39V479.42q0-5.24.65-12.81h-.19a40.45,40.45,0,0,1-2,6.38L1.39,523.57H-2.38l-22.44-50.21a39.41,39.41,0,0,1-2-6.75H-27q.38,3.94.37,12.9v44.06H-34V457.75h10.19l20.2,45.9a58.77,58.77,0,0,1,3,7.9h.27C1,507.94,2,505.24,2.81,503.47l20.61-45.72h9.64Z" transform="translate(83 -332.36)"/>
        <path class="cls-3" d="M139.38,523.57h-8.54l-7-18.45H96L89.4,523.57H80.81l25.25-65.82h8Zm-18-25.38-10.33-28a28.06,28.06,0,0,1-1-4.41h-.18a24.65,24.65,0,0,1-1.06,4.41l-10.23,28Z" transform="translate(83 -332.36)"/>
        <path class="cls-3" d="M230.09,520.82q-7.29,3.85-18.17,3.85-14,0-22.49-9T181,491.9q0-15.78,9.5-25.52t24.1-9.73q9.36,0,15.51,2.71v8.22a31.35,31.35,0,0,0-15.6-3.95q-11.34,0-18.38,7.57t-7.05,20.24q0,12,6.59,19.16t17.28,7.14a32.45,32.45,0,0,0,17.16-4.4Z" transform="translate(83 -332.36)"/>
        <path class="cls-3" d="M331,523.57h-7.71v-30H289.28v30h-7.71V457.75h7.71v28.87h34.05V457.75H331Z" transform="translate(83 -332.36)"/>
        <path class="cls-3" d="M394.08,523.57h-7.71V457.75h7.71Z" transform="translate(83 -332.36)"/>
        <path class="cls-3" d="M502.52,523.57h-9.46l-33.87-52.46a21.74,21.74,0,0,1-2.11-4.13h-.28a68.45,68.45,0,0,1,.37,9v47.55h-7.71V457.75h10l33,51.64q2.06,3.21,2.66,4.4h.18a70.41,70.41,0,0,1-.46-9.68V457.75h7.72Z" transform="translate(83 -332.36)"/>
        <path class="cls-3" d="M592.73,523.57H557.84V457.75h33.42v7H565.55v21.89h23.78v6.93H565.55v23h27.18Z" transform="translate(83 -332.36)"/>
      </g>
      <g class="cls-1">
        <path class="cls-3" d="M-32.86,618.57H-67V552.75h7.71v58.84h26.44Z" transform="translate(83 -332.36)"/>
        <path class="cls-3" d="M50.19,618.57H15.3V552.75H48.72v7H23v21.89H46.79v6.93H23v23H50.19Z" transform="translate(83 -332.36)"/>
        <path class="cls-3" d="M151.87,618.57h-8.54l-7-18.45H108.45l-6.56,18.45H93.31l25.24-65.82h8Zm-18-25.38-10.32-28a25.93,25.93,0,0,1-1-4.41h-.19a24.76,24.76,0,0,1-1,4.41l-10.24,28Z" transform="translate(83 -332.36)"/>
        <path class="cls-3" d="M246.81,618.57h-9.18l-11-18.45a40.45,40.45,0,0,0-2.93-4.38,16.41,16.41,0,0,0-2.92-3,9.89,9.89,0,0,0-3.21-1.68,13.29,13.29,0,0,0-3.88-.53h-6.33v28h-7.71V552.75h19.64a27.91,27.91,0,0,1,8,1.08,17.77,17.77,0,0,1,6.34,3.28,15.26,15.26,0,0,1,4.2,5.49,18.19,18.19,0,0,1,1.51,7.69,18.48,18.48,0,0,1-1,6.31,16.4,16.4,0,0,1-2.94,5.11,17.91,17.91,0,0,1-4.59,3.84,23.59,23.59,0,0,1-6,2.45v.19a14.54,14.54,0,0,1,2.87,1.67,15.58,15.58,0,0,1,2.31,2.23,29.79,29.79,0,0,1,2.18,2.91c.72,1.09,1.53,2.35,2.41,3.79Zm-39.47-58.84V583.6H217.8a15.68,15.68,0,0,0,5.35-.88,12.21,12.21,0,0,0,4.24-2.5,11.12,11.12,0,0,0,2.8-4,13.25,13.25,0,0,0,1-5.3,10.31,10.31,0,0,0-3.42-8.24q-3.42-3-9.89-3Z" transform="translate(83 -332.36)"/>
        <path class="cls-3" d="M347,618.57h-9.45l-33.88-52.46a21.74,21.74,0,0,1-2.11-4.13h-.27a69.1,69.1,0,0,1,.36,9v47.55h-7.71V552.75h10l32.95,51.64q2.07,3.21,2.66,4.4h.19a68.8,68.8,0,0,1-.46-9.68V552.75H347Z" transform="translate(83 -332.36)"/>
        <path class="cls-3" d="M410,618.57h-7.71V552.75H410Z" transform="translate(83 -332.36)"/>
        <path class="cls-3" d="M518.45,618.57H509l-33.88-52.46A22.34,22.34,0,0,1,473,562h-.27a69.1,69.1,0,0,1,.36,9v47.55h-7.71V552.75h10l33,51.64q2.07,3.21,2.67,4.4h.18a68.8,68.8,0,0,1-.46-9.68V552.75h7.71Z" transform="translate(83 -332.36)"/>
        <path class="cls-3" d="M623,614.07a43.93,43.93,0,0,1-22,5.6q-14.09,0-22.79-9.09t-8.7-24.05q0-15.28,9.67-25.08t24.48-9.8q10.74,0,18,3.49v8.54a34.6,34.6,0,0,0-18.91-5q-11.06,0-18.13,7.62T577.54,586q0,12.49,6.57,19.62t17.81,7.14a27.48,27.48,0,0,0,13.35-3.07V591.22H600.86v-7H623Z" transform="translate(83 -332.36)"/>
      </g>
    </g>
  </g>
</svg>
